<?xml version="1.0" encoding="iso-8859-1"?>
<!-- Uploaded to: SVG Repo, www.svgrepo.com, Generator: SVG Repo Mixer Tools -->
<svg height="800px" width="800px" version="1.1" id="Layer_1" xmlns="http://www.w3.org/2000/svg" xmlns:xlink="http://www.w3.org/1999/xlink" 
	 viewBox="0 0 512 512" xml:space="preserve">
<path style="fill:#FF9737;" d="M398.681,251.798c-0.013-0.439-0.033-0.875-0.051-1.313c-0.036-0.973-0.081-1.943-0.137-2.911
	c-0.029-0.487-0.059-0.973-0.093-1.458c-0.065-0.961-0.143-1.919-0.227-2.875c-0.039-0.435-0.073-0.872-0.115-1.306
	c-0.128-1.312-0.272-2.62-0.435-3.921c-0.006-0.058-0.013-0.116-0.019-0.175c-0.172-1.357-0.369-2.706-0.579-4.051
	c-0.066-0.423-0.139-0.842-0.208-1.262c-0.156-0.937-0.318-1.87-0.49-2.8c-0.088-0.473-0.179-0.945-0.272-1.416
	c-0.18-0.915-0.37-1.826-0.566-2.735c-0.094-0.429-0.183-0.858-0.28-1.285c-0.274-1.207-0.562-2.409-0.867-3.604
	c-0.027-0.107-0.052-0.216-0.079-0.321c-0.333-1.297-0.689-2.585-1.056-3.866c-0.115-0.402-0.238-0.801-0.357-1.202
	c-0.265-0.894-0.537-1.784-0.82-2.67c-0.144-0.456-0.293-0.91-0.442-1.364c-0.285-0.861-0.577-1.718-0.877-2.573
	c-0.147-0.418-0.291-0.838-0.441-1.254c-0.397-1.096-0.805-2.186-1.229-3.269c-0.059-0.152-0.113-0.306-0.174-0.457
	c-0.482-1.223-0.984-2.437-1.498-3.644c-0.164-0.384-0.335-0.763-0.502-1.146c-0.365-0.838-0.738-1.673-1.119-2.503
	c-0.202-0.437-0.405-0.872-0.61-1.306c-0.377-0.799-0.762-1.592-1.153-2.382c-0.201-0.405-0.4-0.813-0.605-1.216
	c-0.499-0.983-1.008-1.957-1.528-2.926c-0.101-0.189-0.198-0.38-0.3-0.568c-0.618-1.139-1.254-2.268-1.902-3.389
	c-0.211-0.364-0.43-0.724-0.643-1.087c-0.456-0.774-0.918-1.544-1.388-2.308c-0.254-0.414-0.514-0.826-0.773-1.236
	c-0.46-0.731-0.927-1.456-1.401-2.177c-0.253-0.387-0.507-0.776-0.763-1.161c-0.583-0.869-1.176-1.73-1.776-2.585
	c-0.15-0.215-0.294-0.432-0.446-0.647c-0.744-1.046-1.504-2.08-2.272-3.104c-0.254-0.338-0.516-0.672-0.773-1.008
	c-0.54-0.704-1.083-1.404-1.635-2.099c-0.307-0.386-0.618-0.771-0.928-1.153c-0.534-0.655-1.073-1.306-1.617-1.952
	c-0.307-0.364-0.612-0.73-0.923-1.091c-0.652-0.76-1.316-1.511-1.986-2.257c-0.199-0.224-0.397-0.453-0.6-0.677
	c-0.856-0.943-1.727-1.873-2.607-2.794c-0.295-0.308-0.597-0.61-0.894-0.916c-0.614-0.629-1.232-1.256-1.858-1.874
	c-0.356-0.352-0.715-0.701-1.075-1.05c-0.598-0.58-1.202-1.153-1.811-1.722c-0.356-0.333-0.709-0.666-1.068-0.995
	c-0.715-0.654-1.439-1.301-2.168-1.941c-0.25-0.221-0.496-0.445-0.747-0.664c-0.96-0.832-1.932-1.651-2.914-2.459
	c-0.33-0.271-0.664-0.535-0.996-0.802c-0.686-0.553-1.374-1.102-2.07-1.643c-0.398-0.309-0.799-0.614-1.2-0.919
	c-0.661-0.502-1.326-0.999-1.996-1.49c-0.398-0.291-0.793-0.583-1.193-0.871c-0.775-0.556-1.556-1.101-2.342-1.642
	c-0.241-0.166-0.476-0.34-0.72-0.504l-0.041-0.024c-6.548-4.441-13.487-8.349-20.749-11.669l-0.071-0.04
	c-0.085-0.039-0.171-0.074-0.255-0.113c-0.627-0.285-1.261-0.558-1.893-0.833c-0.467-0.204-0.93-0.413-1.399-0.612
	c-0.841-0.356-1.687-0.698-2.536-1.038c-0.466-0.186-0.931-0.372-1.4-0.554c-0.909-0.354-1.819-0.703-2.737-1.038
	c-0.444-0.163-0.894-0.315-1.34-0.472c-0.694-0.246-1.385-0.493-2.084-0.728c-0.497-0.167-0.996-0.323-1.495-0.485
	c-0.654-0.212-1.31-0.427-1.97-0.631c-0.521-0.16-1.044-0.312-1.566-0.467c-0.645-0.19-1.287-0.38-1.935-0.562
	c-0.536-0.15-1.075-0.292-1.613-0.437c-0.642-0.171-1.282-0.342-1.927-0.504c-0.546-0.138-1.096-0.269-1.645-0.402
	c-0.643-0.154-1.286-0.306-1.933-0.452c-0.554-0.125-1.109-0.245-1.666-0.363c-0.648-0.137-1.297-0.272-1.949-0.4
	c-0.558-0.111-1.118-0.218-1.678-0.321c-0.656-0.122-1.316-0.238-1.976-0.351c-0.558-0.096-1.12-0.19-1.68-0.278
	c-0.667-0.106-1.337-0.205-2.008-0.302c-0.559-0.081-1.118-0.161-1.68-0.235c-0.682-0.089-1.367-0.171-2.051-0.251
	c-0.554-0.066-1.106-0.132-1.662-0.19c-0.705-0.074-1.413-0.138-2.121-0.203c-0.541-0.049-1.081-0.101-1.624-0.144
	c-0.742-0.058-1.486-0.105-2.229-0.152c-0.514-0.032-1.025-0.07-1.539-0.097c-0.83-0.044-1.662-0.072-2.494-0.101
	c-0.433-0.015-0.866-0.038-1.299-0.05c-1.254-0.032-2.512-0.051-3.773-0.051c-0.015,0-0.029,0-0.044,0h-0.001
	c-0.001,0-0.001,0-0.001,0c-0.015,0-0.029,0-0.044,0c-1.261,0-2.519,0.018-3.773,0.051c-0.434,0.012-0.866,0.034-1.299,0.05
	c-0.833,0.029-1.665,0.058-2.494,0.101c-0.514,0.027-1.026,0.066-1.538,0.097c-0.744,0.047-1.489,0.093-2.23,0.152
	c-0.543,0.043-1.083,0.095-1.624,0.144c-0.708,0.065-1.415,0.128-2.12,0.203c-0.556,0.058-1.109,0.125-1.662,0.19
	c-0.684,0.08-1.37,0.162-2.051,0.251c-0.562,0.073-1.121,0.154-1.68,0.235c-0.67,0.097-1.34,0.196-2.007,0.302
	c-0.562,0.089-1.122,0.182-1.682,0.278c-0.661,0.112-1.319,0.23-1.976,0.351c-0.561,0.105-1.12,0.211-1.678,0.321
	c-0.651,0.129-1.3,0.263-1.949,0.4c-0.557,0.119-1.112,0.238-1.666,0.363c-0.646,0.146-1.289,0.298-1.932,0.452
	c-0.549,0.132-1.098,0.264-1.645,0.402c-0.645,0.163-1.286,0.334-1.927,0.504c-0.539,0.144-1.078,0.287-1.614,0.437
	c-0.648,0.181-1.29,0.372-1.934,0.562c-0.523,0.155-1.047,0.306-1.567,0.467c-0.66,0.204-1.315,0.418-1.97,0.631
	c-0.498,0.161-0.998,0.318-1.494,0.485c-0.698,0.235-1.39,0.483-2.084,0.728c-0.446,0.157-0.896,0.309-1.34,0.472
	c-0.918,0.335-1.828,0.684-2.737,1.038c-0.468,0.182-0.935,0.368-1.399,0.554c-0.848,0.34-1.696,0.682-2.536,1.038
	c-0.469,0.199-0.932,0.409-1.399,0.612c-0.632,0.276-1.265,0.55-1.892,0.833c-0.085,0.039-0.171,0.074-0.257,0.113l-0.07,0.04
	c-7.263,3.32-14.201,7.228-20.748,11.669l-0.042,0.024c-0.243,0.165-0.479,0.338-0.72,0.504c-0.786,0.54-1.567,1.085-2.341,1.642
	c-0.4,0.287-0.797,0.579-1.193,0.871c-0.67,0.492-1.336,0.987-1.996,1.49c-0.401,0.305-0.802,0.61-1.2,0.919
	c-0.695,0.541-1.385,1.09-2.07,1.643c-0.332,0.268-0.666,0.531-0.996,0.802c-0.982,0.807-1.954,1.625-2.914,2.459
	c-0.251,0.219-0.497,0.443-0.748,0.664c-0.728,0.64-1.452,1.286-2.167,1.941c-0.359,0.329-0.712,0.662-1.068,0.995
	c-0.609,0.569-1.213,1.143-1.811,1.722c-0.359,0.348-0.719,0.697-1.075,1.05c-0.626,0.619-1.243,1.245-1.857,1.874
	c-0.298,0.306-0.599,0.608-0.895,0.916c-0.881,0.921-1.752,1.851-2.607,2.794c-0.203,0.223-0.399,0.452-0.6,0.677
	c-0.669,0.746-1.331,1.497-1.984,2.257c-0.31,0.361-0.615,0.726-0.922,1.091c-0.544,0.647-1.083,1.297-1.617,1.952
	c-0.312,0.383-0.622,0.767-0.929,1.153c-0.552,0.694-1.095,1.395-1.635,2.099c-0.257,0.336-0.517,0.669-0.773,1.008
	c-0.77,1.025-1.528,2.059-2.272,3.104c-0.152,0.213-0.296,0.431-0.447,0.647c-0.6,0.855-1.193,1.716-1.775,2.585
	c-0.258,0.385-0.51,0.773-0.764,1.161c-0.473,0.721-0.941,1.447-1.401,2.177c-0.259,0.411-0.516,0.822-0.772,1.236
	c-0.471,0.764-0.932,1.534-1.389,2.308c-0.214,0.362-0.431,0.722-0.642,1.087c-0.649,1.121-1.285,2.248-1.902,3.389
	c-0.102,0.188-0.198,0.379-0.3,0.568c-0.52,0.969-1.03,1.943-1.528,2.926c-0.205,0.403-0.404,0.811-0.605,1.216
	c-0.391,0.79-0.776,1.583-1.153,2.382c-0.205,0.434-0.409,0.869-0.609,1.306c-0.382,0.83-0.753,1.664-1.119,2.503
	c-0.167,0.382-0.337,0.762-0.501,1.146c-0.515,1.207-1.016,2.421-1.498,3.644c-0.059,0.152-0.114,0.305-0.174,0.457
	c-0.423,1.083-0.832,2.173-1.229,3.269c-0.151,0.416-0.294,0.835-0.442,1.254c-0.3,0.855-0.594,1.712-0.877,2.573
	c-0.15,0.454-0.297,0.908-0.443,1.364c-0.282,0.886-0.554,1.775-0.819,2.67c-0.119,0.401-0.243,0.8-0.357,1.202
	c-0.369,1.282-0.723,2.57-1.056,3.866c-0.027,0.107-0.051,0.215-0.079,0.321c-0.304,1.195-0.592,2.397-0.866,3.604
	c-0.097,0.427-0.186,0.857-0.28,1.285c-0.197,0.909-0.387,1.819-0.567,2.735c-0.093,0.472-0.183,0.944-0.272,1.416
	c-0.174,0.93-0.335,1.864-0.49,2.8c-0.069,0.42-0.143,0.84-0.209,1.262c-0.21,1.345-0.406,2.694-0.579,4.051
	c-0.008,0.058-0.013,0.116-0.02,0.175c-0.164,1.301-0.307,2.61-0.434,3.921c-0.043,0.434-0.078,0.871-0.116,1.306
	c-0.085,0.956-0.162,1.913-0.227,2.875c-0.033,0.485-0.064,0.971-0.092,1.458c-0.056,0.967-0.101,1.938-0.138,2.911
	c-0.017,0.438-0.038,0.874-0.05,1.313c-0.041,1.396-0.067,2.795-0.067,4.202c0,4.927,0.249,9.796,0.737,14.595
	c7.31,71.981,68.099,128.152,142.009,128.152c0.001,0,0.001,0,0.001,0h0.001c73.91,0,134.699-56.17,142.009-128.152
	c0.487-4.799,0.737-9.668,0.737-14.595C398.748,254.594,398.721,253.194,398.681,251.798z"/>
<path style="opacity:0.1;fill:#231F20;enable-background:new    ;" d="M131.235,270.595c-0.487-4.799-0.737-9.668-0.737-14.595
	c0-1.406,0.026-2.806,0.067-4.202c0.013-0.439,0.033-0.875,0.05-1.313c0.037-0.973,0.082-1.943,0.138-2.911
	c0.028-0.487,0.059-0.973,0.092-1.458c0.066-0.961,0.142-1.919,0.227-2.875c0.039-0.435,0.073-0.872,0.116-1.306
	c0.128-1.312,0.271-2.62,0.434-3.921c0.006-0.058,0.013-0.116,0.02-0.175c0.172-1.357,0.368-2.706,0.579-4.051
	c0.066-0.423,0.139-0.842,0.209-1.262c0.155-0.937,0.317-1.87,0.49-2.8c0.088-0.473,0.179-0.945,0.272-1.416
	c0.18-0.915,0.37-1.826,0.567-2.735c0.094-0.429,0.183-0.858,0.28-1.285c0.274-1.207,0.562-2.409,0.866-3.604
	c0.027-0.107,0.051-0.216,0.079-0.321c0.333-1.297,0.689-2.585,1.056-3.866c0.115-0.402,0.238-0.801,0.357-1.202
	c0.265-0.894,0.537-1.784,0.819-2.67c0.144-0.456,0.292-0.91,0.443-1.364c0.283-0.861,0.578-1.718,0.877-2.573
	c0.147-0.418,0.291-0.838,0.442-1.254c0.397-1.096,0.806-2.186,1.229-3.269c0.059-0.152,0.114-0.306,0.174-0.457
	c0.482-1.223,0.984-2.437,1.498-3.644c0.164-0.384,0.334-0.763,0.501-1.146c0.365-0.838,0.737-1.673,1.119-2.503
	c0.201-0.437,0.405-0.872,0.61-1.306c0.377-0.799,0.762-1.592,1.153-2.382c0.2-0.405,0.4-0.813,0.605-1.216
	c0.498-0.983,1.009-1.957,1.528-2.926c0.101-0.189,0.198-0.38,0.3-0.568c0.619-1.139,1.255-2.268,1.902-3.389
	c0.211-0.364,0.428-0.724,0.642-1.087c0.456-0.774,0.918-1.544,1.389-2.308c0.254-0.414,0.513-0.826,0.772-1.236
	c0.46-0.731,0.928-1.456,1.401-2.177c0.253-0.387,0.507-0.776,0.764-1.161c0.582-0.869,1.175-1.73,1.775-2.585
	c0.151-0.215,0.295-0.432,0.447-0.647c0.744-1.046,1.503-2.08,2.272-3.104c0.254-0.338,0.516-0.672,0.773-1.008
	c0.54-0.704,1.082-1.404,1.635-2.099c0.307-0.386,0.618-0.771,0.929-1.153c0.534-0.655,1.073-1.306,1.617-1.952
	c0.307-0.364,0.612-0.73,0.922-1.091c0.653-0.76,1.316-1.511,1.984-2.257c0.202-0.224,0.398-0.453,0.6-0.677
	c0.856-0.943,1.727-1.873,2.607-2.794c0.295-0.308,0.596-0.61,0.895-0.916c0.614-0.629,1.232-1.256,1.857-1.874
	c0.356-0.352,0.716-0.701,1.075-1.05c0.598-0.58,1.203-1.153,1.811-1.722c0.356-0.333,0.709-0.666,1.068-0.995
	c0.715-0.654,1.439-1.301,2.167-1.941c0.25-0.221,0.496-0.445,0.748-0.664c0.96-0.832,1.932-1.651,2.914-2.459
	c0.33-0.271,0.664-0.535,0.996-0.802c0.686-0.553,1.374-1.102,2.07-1.643c0.398-0.309,0.799-0.614,1.2-0.919
	c0.661-0.502,1.326-0.999,1.996-1.49c0.398-0.291,0.793-0.583,1.193-0.871c0.774-0.556,1.556-1.101,2.341-1.642
	c0.241-0.166,0.478-0.34,0.72-0.504l0.042-0.024c6.548-4.441,13.486-8.349,20.748-11.669l0.07-0.04
	c0.085-0.039,0.171-0.074,0.257-0.113c0.626-0.285,1.26-0.558,1.892-0.833c0.467-0.204,0.93-0.413,1.399-0.612
	c0.841-0.356,1.687-0.698,2.536-1.038c0.466-0.186,0.931-0.372,1.399-0.554c0.909-0.354,1.819-0.703,2.737-1.038
	c0.444-0.163,0.894-0.315,1.34-0.472c0.693-0.246,1.385-0.493,2.084-0.728c0.496-0.167,0.996-0.323,1.494-0.485
	c0.655-0.212,1.311-0.427,1.97-0.631c0.521-0.16,1.044-0.312,1.567-0.467c0.644-0.19,1.287-0.38,1.934-0.562
	c0.536-0.15,1.075-0.292,1.614-0.437c0.641-0.171,1.282-0.342,1.927-0.504c0.546-0.138,1.096-0.269,1.645-0.402
	c0.643-0.154,1.286-0.306,1.932-0.452c0.554-0.125,1.11-0.245,1.666-0.363c0.648-0.137,1.297-0.272,1.949-0.4
	c0.558-0.111,1.118-0.218,1.678-0.321c0.656-0.122,1.315-0.238,1.976-0.351c0.559-0.096,1.12-0.19,1.682-0.278
	c0.667-0.106,1.337-0.205,2.007-0.302c0.559-0.081,1.119-0.161,1.68-0.235c0.682-0.089,1.367-0.171,2.051-0.251
	c0.554-0.066,1.107-0.132,1.663-0.19c0.704-0.074,1.413-0.138,2.12-0.203c0.541-0.049,1.081-0.101,1.624-0.144
	c0.742-0.058,1.485-0.105,2.23-0.152c0.175-0.011,0.351-0.022,0.526-0.033c-0.337-0.023-0.673-0.046-1.011-0.065
	c-0.83-0.044-1.662-0.072-2.494-0.101c-0.433-0.015-0.866-0.038-1.299-0.05c-1.254-0.032-2.511-0.051-3.773-0.051
	c-0.015,0-0.029,0-0.044,0h-0.001c-0.001,0-0.001,0-0.001,0c-0.015,0-0.029,0-0.044,0c-1.261,0-2.519,0.018-3.773,0.051
	c-0.434,0.012-0.866,0.034-1.299,0.05c-0.833,0.029-1.665,0.058-2.494,0.101c-0.514,0.027-1.026,0.066-1.538,0.097
	c-0.744,0.047-1.489,0.093-2.23,0.152c-0.543,0.043-1.083,0.095-1.624,0.144c-0.708,0.065-1.415,0.128-2.12,0.203
	c-0.556,0.058-1.109,0.125-1.662,0.19c-0.684,0.08-1.37,0.162-2.051,0.251c-0.562,0.073-1.121,0.154-1.68,0.235
	c-0.67,0.097-1.34,0.196-2.007,0.302c-0.562,0.089-1.122,0.182-1.682,0.278c-0.661,0.112-1.319,0.23-1.976,0.351
	c-0.561,0.105-1.12,0.211-1.678,0.321c-0.651,0.129-1.3,0.263-1.949,0.4c-0.557,0.119-1.112,0.238-1.666,0.363
	c-0.646,0.146-1.289,0.298-1.932,0.452c-0.549,0.132-1.098,0.264-1.645,0.402c-0.645,0.163-1.286,0.334-1.927,0.504
	c-0.539,0.144-1.078,0.287-1.614,0.437c-0.648,0.181-1.29,0.372-1.934,0.562c-0.523,0.155-1.047,0.306-1.567,0.467
	c-0.66,0.204-1.315,0.418-1.97,0.631c-0.498,0.161-0.998,0.318-1.494,0.485c-0.698,0.235-1.39,0.483-2.084,0.728
	c-0.446,0.157-0.896,0.309-1.34,0.472c-0.918,0.335-1.828,0.684-2.737,1.038c-0.468,0.182-0.935,0.368-1.399,0.554
	c-0.848,0.34-1.696,0.682-2.536,1.038c-0.469,0.199-0.932,0.409-1.399,0.612c-0.632,0.276-1.265,0.55-1.892,0.833
	c-0.085,0.039-0.171,0.074-0.257,0.113l-0.07,0.04c-7.263,3.32-14.201,7.228-20.748,11.669l-0.042,0.024
	c-0.243,0.165-0.479,0.338-0.72,0.504c-0.786,0.54-1.567,1.085-2.341,1.642c-0.4,0.287-0.797,0.579-1.193,0.871
	c-0.67,0.492-1.336,0.987-1.996,1.49c-0.401,0.305-0.802,0.61-1.2,0.919c-0.695,0.541-1.385,1.09-2.07,1.643
	c-0.332,0.268-0.666,0.531-0.996,0.802c-0.982,0.807-1.954,1.625-2.914,2.459c-0.251,0.219-0.497,0.443-0.748,0.664
	c-0.728,0.64-1.452,1.286-2.167,1.941c-0.359,0.329-0.712,0.662-1.068,0.995c-0.609,0.569-1.213,1.143-1.811,1.722
	c-0.359,0.348-0.719,0.697-1.075,1.05c-0.626,0.619-1.243,1.245-1.857,1.874c-0.298,0.306-0.599,0.608-0.895,0.916
	c-0.881,0.921-1.752,1.851-2.607,2.794c-0.203,0.223-0.399,0.452-0.6,0.677c-0.669,0.746-1.331,1.497-1.984,2.257
	c-0.31,0.361-0.615,0.726-0.922,1.091c-0.544,0.647-1.083,1.297-1.617,1.952c-0.312,0.383-0.622,0.767-0.929,1.153
	c-0.552,0.694-1.095,1.395-1.635,2.099c-0.257,0.336-0.517,0.669-0.773,1.008c-0.77,1.025-1.528,2.059-2.272,3.104
	c-0.152,0.213-0.296,0.431-0.447,0.647c-0.6,0.855-1.193,1.716-1.775,2.585c-0.258,0.385-0.51,0.773-0.764,1.161
	c-0.473,0.721-0.941,1.447-1.401,2.177c-0.259,0.411-0.516,0.822-0.772,1.236c-0.471,0.764-0.932,1.534-1.389,2.308
	c-0.215,0.362-0.431,0.722-0.642,1.087c-0.649,1.121-1.285,2.248-1.902,3.389c-0.102,0.188-0.198,0.379-0.3,0.568
	c-0.52,0.969-1.03,1.943-1.528,2.926c-0.205,0.403-0.404,0.811-0.605,1.216c-0.391,0.79-0.776,1.583-1.153,2.382
	c-0.205,0.434-0.409,0.869-0.609,1.306c-0.382,0.83-0.753,1.664-1.119,2.503c-0.167,0.382-0.337,0.762-0.501,1.146
	c-0.515,1.207-1.016,2.421-1.498,3.644c-0.059,0.152-0.114,0.305-0.174,0.457c-0.423,1.083-0.832,2.173-1.229,3.269
	c-0.151,0.416-0.294,0.835-0.442,1.254c-0.3,0.855-0.594,1.712-0.877,2.573c-0.15,0.454-0.298,0.908-0.443,1.364
	c-0.282,0.886-0.554,1.775-0.819,2.67c-0.119,0.401-0.243,0.8-0.357,1.202c-0.369,1.282-0.723,2.57-1.056,3.866
	c-0.027,0.107-0.051,0.215-0.079,0.321c-0.304,1.195-0.592,2.397-0.866,3.604c-0.097,0.427-0.186,0.857-0.28,1.285
	c-0.197,0.909-0.387,1.819-0.567,2.735c-0.093,0.472-0.183,0.944-0.272,1.416c-0.174,0.93-0.335,1.864-0.49,2.8
	c-0.069,0.42-0.143,0.84-0.209,1.262c-0.21,1.345-0.406,2.694-0.579,4.051c-0.008,0.058-0.013,0.116-0.02,0.175
	c-0.164,1.301-0.307,2.61-0.434,3.921c-0.043,0.434-0.078,0.871-0.116,1.306c-0.085,0.956-0.162,1.913-0.227,2.875
	c-0.033,0.485-0.064,0.971-0.092,1.458c-0.056,0.967-0.101,1.938-0.138,2.911c-0.017,0.438-0.038,0.874-0.05,1.313
	c-0.041,1.396-0.067,2.795-0.067,4.202c0,4.927,0.249,9.796,0.737,14.595c7.31,71.981,68.099,128.152,142.009,128.152
	c0.001,0,0.001,0,0.001,0h0.001c2.896,0,5.769-0.096,8.621-0.266C194.655,394.31,138.258,339.756,131.235,270.595z"/>
<g style="opacity:0.55;">
	<path style="fill:#F5F5F5;" d="M328.553,326.01c-1.938,0-3.883-0.693-5.429-2.097c-3.307-3-3.556-8.112-0.556-11.419
		c0.733-0.808,1.451-1.631,2.154-2.467c2.872-3.418,7.971-3.862,11.389-0.99c3.419,2.873,3.862,7.971,0.99,11.39
		c-0.833,0.993-1.694,1.979-2.558,2.931C332.947,325.117,330.754,326.01,328.553,326.01z"/>
</g>
<g style="opacity:0.55;">
	<path style="fill:#F5F5F5;" d="M342.734,303.213c-1.107,0-2.232-0.229-3.308-0.713c-4.072-1.83-5.891-6.615-4.06-10.687
		c5.051-11.238,7.612-23.239,7.612-35.67c0-36.085-21.696-67.925-55.272-81.118c-4.155-1.633-6.201-6.325-4.568-10.48
		c1.633-4.155,6.325-6.201,10.48-4.568c19.101,7.504,35.405,20.415,47.148,37.336c12.025,17.324,18.381,37.668,18.381,58.83
		c0,14.732-3.039,28.962-9.033,42.298C348.767,301.436,345.82,303.213,342.734,303.213z"/>
</g>
<g>
	<path style="fill:#FF9737;" d="M256.001,73.671c-4.465,0-8.084-3.62-8.084-8.084V8.084c0-4.465,3.62-8.084,8.084-8.084
		c4.466,0,8.084,3.62,8.084,8.084v57.502C264.085,70.051,260.466,73.671,256.001,73.671z"/>
	<path style="fill:#FF9737;" d="M256.001,512c-4.465,0-8.084-3.62-8.084-8.084v-57.504c0-4.465,3.62-8.084,8.084-8.084
		c4.466,0,8.084,3.62,8.084,8.084v57.504C264.085,508.38,260.466,512,256.001,512z"/>
	<path style="fill:#FF9737;" d="M121.357,129.441c-2.068,0-4.138-0.789-5.716-2.367l-40.66-40.66c-3.157-3.157-3.157-8.276,0-11.432
		c3.157-3.157,8.275-3.157,11.432,0l40.66,40.659c3.157,3.157,3.157,8.276,0,11.433
		C125.495,128.651,123.426,129.441,121.357,129.441z"/>
	<path style="fill:#FF9737;" d="M431.303,439.387c-2.068,0-4.138-0.789-5.717-2.368l-40.659-40.66
		c-3.158-3.157-3.158-8.275,0-11.433c3.156-3.157,8.276-3.157,11.431,0l40.661,40.66c3.157,3.157,3.157,8.275,0,11.433
		C435.441,438.596,433.372,439.387,431.303,439.387z"/>
	<path style="fill:#FF9737;" d="M65.587,264.084H8.084C3.62,264.084,0,260.465,0,256c0-4.465,3.62-8.084,8.084-8.084h57.502
		c4.465,0,8.084,3.62,8.084,8.084C73.671,260.465,70.051,264.084,65.587,264.084z"/>
	<path style="fill:#FF9737;" d="M503.916,264.084h-57.504c-4.465,0-8.084-3.62-8.084-8.084c0-4.465,3.62-8.084,8.084-8.084h57.504
		c4.465,0,8.084,3.62,8.084,8.084C512,260.465,508.38,264.084,503.916,264.084z"/>
	<path style="fill:#FF9737;" d="M80.697,439.387c-2.07,0-4.138-0.789-5.716-2.368c-3.157-3.157-3.157-8.276,0-11.433l40.661-40.659
		c3.157-3.157,8.276-3.157,11.433,0c3.157,3.157,3.157,8.276,0,11.432l-40.661,40.66C84.835,438.596,82.765,439.387,80.697,439.387z
		"/>
	<path style="fill:#FF9737;" d="M390.643,129.441c-2.07,0-4.138-0.789-5.716-2.368c-3.158-3.157-3.158-8.276,0-11.433l40.659-40.659
		c3.158-3.157,8.276-3.157,11.433,0c3.157,3.157,3.157,8.276,0,11.432l-40.661,40.659
		C394.781,128.651,392.712,129.441,390.643,129.441z"/>
	<path style="fill:#FF9737;" d="M160.801,99.184c-2.794,0-5.511-1.45-7.008-4.043l-28.752-49.8
		c-2.232-3.866-0.908-8.811,2.959-11.043s8.811-0.908,11.043,2.959l28.752,49.8c2.232,3.866,0.908,8.811-2.959,11.043
		C163.563,98.833,162.172,99.184,160.801,99.184z"/>
	<path style="fill:#FF9737;" d="M379.964,478.788c-2.794,0-5.51-1.45-7.008-4.043l-28.751-49.799
		c-2.232-3.866-0.908-8.811,2.959-11.043c3.867-2.232,8.812-0.908,11.043,2.959l28.751,49.799c2.232,3.866,0.908,8.811-2.959,11.043
		C382.725,478.438,381.335,478.788,379.964,478.788z"/>
	<path style="fill:#FF9737;" d="M72.081,214.804c-0.693,0-1.397-0.089-2.098-0.278l-55.543-14.884
		c-4.313-1.156-6.872-5.589-5.716-9.902c1.156-4.313,5.589-6.873,9.902-5.717l55.543,14.885c4.313,1.156,6.872,5.589,5.716,9.902
		C78.916,212.422,75.65,214.804,72.081,214.804z"/>
	<path style="fill:#FF9737;" d="M495.473,328.251c-0.693,0-1.397-0.089-2.098-0.278l-55.543-14.884
		c-4.313-1.155-6.872-5.589-5.716-9.902c1.154-4.313,5.588-6.873,9.902-5.716l55.543,14.884c4.313,1.156,6.872,5.589,5.716,9.902
		C502.309,325.869,499.042,328.251,495.473,328.251z"/>
	<path style="fill:#FF9737;" d="M41.306,388.042c-2.794,0-5.511-1.451-7.008-4.044c-2.232-3.866-0.908-8.811,2.959-11.043
		l49.8-28.75c3.866-2.232,8.811-0.908,11.043,2.959c2.232,3.866,0.908,8.811-2.959,11.043l-49.8,28.751
		C44.068,387.693,42.677,388.042,41.306,388.042z"/>
	<path style="fill:#FF9737;" d="M420.91,168.879c-2.794,0-5.511-1.45-7.008-4.044c-2.232-3.866-0.908-8.811,2.959-11.043
		l49.798-28.751c3.866-2.232,8.812-0.908,11.043,2.959c2.232,3.866,0.908,8.811-2.959,11.043l-49.798,28.751
		C423.673,168.529,422.282,168.879,420.91,168.879z"/>
	<path style="fill:#FF9737;" d="M191.84,503.554c-0.693,0-1.397-0.089-2.098-0.277c-4.313-1.155-6.872-5.589-5.716-9.902
		l14.884-55.543c1.156-4.313,5.589-6.872,9.902-5.716c4.313,1.156,6.872,5.589,5.716,9.902l-14.884,55.542
		C198.675,501.171,195.409,503.554,191.84,503.554z"/>
	<path style="fill:#FF9737;" d="M305.29,80.162c-0.693,0-1.396-0.089-2.096-0.277c-4.314-1.156-6.873-5.589-5.718-9.902
		l14.883-55.543c1.154-4.313,5.588-6.873,9.902-5.716c4.312,1.154,6.872,5.588,5.716,9.9l-14.881,55.543
		C312.125,77.779,308.858,80.162,305.29,80.162z"/>
</g>
</svg>